<svg id="Layer_1" data-name="Layer 1" xmlns="http://www.w3.org/2000/svg" viewBox="0 0 171 68"><defs><style>.cls-1{fill:#1178d0;}</style></defs><title>Artboard 1</title><path class="cls-1" d="M66.53,30.32H54.34V23.21H65.63V15H54.34V9.11H66.53V.94H44.16V38.62H66.53ZM29.05,18q0,3.45.36,9.15h-.15L15.55.94H2.25V38.62h9v-17q0-3.3-.49-9.56H11L24.77,38.62H38.12V.94H29.05Zm90,17.27q-1.89-2.51-6.77-4.7a43.67,43.67,0,0,1-6.22-3.2,2.49,2.49,0,0,1-1.15-2,2.1,2.1,0,0,1,.9-1.73,4.75,4.75,0,0,1,2.89-.7,22.6,22.6,0,0,1,9.12,2.42l3.12-7.86A29.22,29.22,0,0,0,109,14.8h0l8.51-14h-1.06l-17.6,29-6.69-9.63L104.05.94H92.43L85.88,12.59,79.08.94H67.79l11.75,18.4L67,38.62H78.57l7.27-11.78,7.35,11.78h.25l-9.08,15h1.06l12.21-20.1a10.13,10.13,0,0,0,.81.78A24,24,0,0,0,104,37.5q4.07,1.83,5,2.42a5,5,0,0,1,1.37,1.17,2.23,2.23,0,0,1,.43,1.35,2.42,2.42,0,0,1-1.06,2,5.61,5.61,0,0,1-3.32.79,22.56,22.56,0,0,1-5.77-.84,30.29,30.29,0,0,1-6.06-2.33v9.07A23.42,23.42,0,0,0,99.85,53a31.82,31.82,0,0,0,6.31.53A19,19,0,0,0,114,52a11.65,11.65,0,0,0,5.13-4.23,11.11,11.11,0,0,0,1.78-6.22A10.22,10.22,0,0,0,119,35.25ZM141.27,53V23.66h9.17V15.34H121.89v8.32h9.2V53Zm-91.8,4.63Q48.13,61.56,48,62a6.17,6.17,0,0,0-.19.78h0a7,7,0,0,0-.4-1.48L46,57.65h-1.5l2.6,6.48-.24.61a1.45,1.45,0,0,1-1.4,1.15,3.22,3.22,0,0,1-.71-.07v1.09a4,4,0,0,0,.89.1,2.63,2.63,0,0,0,2.52-2L51,57.65Zm4.45-.12a2.93,2.93,0,0,0-2.28.88,3.51,3.51,0,0,0-.81,2.46,4,4,0,0,0,.37,1.78,2.71,2.71,0,0,0,1.07,1.18,3.11,3.11,0,0,0,1.6.41,2.92,2.92,0,0,0,2.27-.89A3.54,3.54,0,0,0,57,60.88a3.5,3.5,0,0,0-.82-2.44A2.85,2.85,0,0,0,53.93,57.54Zm0,5.59q-1.66,0-1.66-2.24a2.92,2.92,0,0,1,.39-1.65,1.41,1.41,0,0,1,1.26-.57q1.65,0,1.65,2.22T53.91,63.12Zm8.19-2.24a2.86,2.86,0,0,1-.41,1.74,1.52,1.52,0,0,1-1.27.52,1.16,1.16,0,0,1-1-.37,1.73,1.73,0,0,1-.3-1.12v-4H57.77v4.23a2.43,2.43,0,0,0,.58,1.77,2.37,2.37,0,0,0,1.76.59A2.73,2.73,0,0,0,61.32,64a2,2,0,0,0,.82-.71h.07l.19.85h1.08V57.65H62.1Zm4.79-3a2.57,2.57,0,0,0-.84.92H66l-.18-1.14H64.73v6.48H66.1V60.75a2,2,0,0,1,.51-1.4A1.76,1.76,0,0,1,68,58.81a2.6,2.6,0,0,1,.61.07l.13-1.28a3.32,3.32,0,0,0-.69-.06A2,2,0,0,0,66.9,57.88Zm8.32,3A5.68,5.68,0,0,0,74,60.32a6.24,6.24,0,0,1-1.24-.58.62.62,0,0,1-.28-.52q0-.62,1.09-.62a4.81,4.81,0,0,1,1.76.43l.45-1a5.17,5.17,0,0,0-2.16-.46,3.18,3.18,0,0,0-1.82.46,1.48,1.48,0,0,0-.67,1.29,1.6,1.6,0,0,0,.4,1.12,4.14,4.14,0,0,0,1.51.87,8,8,0,0,1,.9.4,1.67,1.67,0,0,1,.46.34.61.61,0,0,1,.14.41q0,.77-1.27.77a5.1,5.1,0,0,1-2.13-.53v1.19a4.68,4.68,0,0,0,2.08.39,3.31,3.31,0,0,0,2-.51,1.7,1.7,0,0,0,.69-1.46,1.72,1.72,0,0,0-.18-.81A1.7,1.7,0,0,0,75.21,60.89ZM80,57.54a2.16,2.16,0,0,0-1.93,1H78q-.15-.69-.19-.87H76.7V67h1.38V64.36q0-.18-.08-1h.08a2.49,2.49,0,0,0,3.81,0,4.82,4.82,0,0,0,0-4.94A2.25,2.25,0,0,0,80,57.54Zm.77,5a1.24,1.24,0,0,1-1.1.59,1.39,1.39,0,0,1-1.22-.53,3,3,0,0,1-.37-1.71v-.2a2.49,2.49,0,0,1,.38-1.53,1.43,1.43,0,0,1,1.2-.48,1.28,1.28,0,0,1,1.13.56,2.92,2.92,0,0,1,.38,1.65A3,3,0,0,1,80.77,62.54Zm5.38-5a2.93,2.93,0,0,0-2.28.88,3.51,3.51,0,0,0-.81,2.46,4,4,0,0,0,.37,1.78,2.71,2.71,0,0,0,1.07,1.18,3.11,3.11,0,0,0,1.6.41,2.92,2.92,0,0,0,2.27-.89,3.54,3.54,0,0,0,.81-2.48,3.5,3.5,0,0,0-.82-2.44A2.85,2.85,0,0,0,86.15,57.54Zm0,5.59q-1.66,0-1.66-2.24a2.92,2.92,0,0,1,.39-1.65,1.41,1.41,0,0,1,1.26-.57q1.65,0,1.65,2.22T86.14,63.12Zm10.13-.23a1,1,0,0,1-.25-.74V58.7h1.85v-1H96V56.21h-.85l-.47,1.37L94,58l0-.37a3.32,3.32,0,0,0-.69-.06,2,2,0,0,0-1.12.34,2.57,2.57,0,0,0-.84.92h-.07l-.18-1.14H90.06v6.48h1.38V60.75a2,2,0,0,1,.51-1.4,1.76,1.76,0,0,1,1.34-.54,2.6,2.6,0,0,1,.61.07l0-.18h.73v3.49q0,2.06,2,2.06a4.06,4.06,0,0,0,.75-.07,2.78,2.78,0,0,0,.59-.17V63a3.35,3.35,0,0,1-1,.16A.91.91,0,0,1,96.27,62.9Zm7.41-5.32a4.61,4.61,0,0,0-.58,0,2.79,2.79,0,0,0-1.89.58,2.05,2.05,0,0,0-.66,1.63,2.08,2.08,0,0,0,.31,1.15,1.8,1.8,0,0,0,.82.71,2.37,2.37,0,0,0-.61.5.94.94,0,0,0-.21.62,1,1,0,0,0,.18.55,1,1,0,0,0,.45.38,2,2,0,0,0-1.06.57,1.42,1.42,0,0,0-.38,1,1.51,1.51,0,0,0,.7,1.34,3.62,3.62,0,0,0,2,.47,4.78,4.78,0,0,0,2.62-.6,1.92,1.92,0,0,0,.91-1.7,1.61,1.61,0,0,0-.56-1.32,2.51,2.51,0,0,0-1.63-.46H103a1.8,1.8,0,0,1-.76-.11.36.36,0,0,1-.21-.33.78.78,0,0,1,.45-.64,3.09,3.09,0,0,0,.56,0,2.89,2.89,0,0,0,1.9-.57,1.94,1.94,0,0,0,.69-1.58,2,2,0,0,0-.1-.63,1.79,1.79,0,0,0-.25-.5l1.11-.21v-.76h-2.24Zm-1.1,6.53h1a2.42,2.42,0,0,1,1.12.18.64.64,0,0,1,.3.6,1,1,0,0,1-.55.86,3.41,3.41,0,0,1-1.68.32,2.21,2.21,0,0,1-1.13-.24.76.76,0,0,1-.4-.69.91.91,0,0,1,.35-.75A1.46,1.46,0,0,1,102.57,64.11Zm.52-3.09a1.18,1.18,0,0,1-.9-.33,1.3,1.3,0,0,1-.31-.94,1.43,1.43,0,0,1,.31-1,1.16,1.16,0,0,1,.9-.34,1.12,1.12,0,0,1,.9.34,1.45,1.45,0,0,1,.3,1Q104.28,61,103.09,61Zm6.34-3.48a2.73,2.73,0,0,0-2.17.91,3.67,3.67,0,0,0-.79,2.5,3.35,3.35,0,0,0,.85,2.43,3.13,3.13,0,0,0,2.36.88,6.25,6.25,0,0,0,1.18-.1,4.22,4.22,0,0,0,1-.34V62.69a5.61,5.61,0,0,1-1.06.36,5,5,0,0,1-1.07.11,1.77,1.77,0,0,1-1.35-.51,2.13,2.13,0,0,1-.51-1.45h4.32v-.74a3,3,0,0,0-.74-2.14A2.67,2.67,0,0,0,109.43,57.54Zm-1.52,2.67a2,2,0,0,1,.47-1.21,1.38,1.38,0,0,1,1.05-.42,1.32,1.32,0,0,1,1,.41,1.79,1.79,0,0,1,.39,1.22Zm7.68-2.67a5.31,5.31,0,0,0-1.18.14,4.79,4.79,0,0,0-1.15.42l.45,1a7.22,7.22,0,0,1,.88-.35,3.11,3.11,0,0,1,1-.15,1.18,1.18,0,0,1,.9.31,1.31,1.31,0,0,1,.29.93v.35l-1.12,0a4.29,4.29,0,0,0-2.27.56,1.71,1.71,0,0,0-.74,1.51,1.93,1.93,0,0,0,.54,1.46,2.06,2.06,0,0,0,1.49.52,3,3,0,0,0,1.22-.21,2.65,2.65,0,0,0,.94-.81h0l.28.9h1V59.77a2.11,2.11,0,0,0-.63-1.69A2.8,2.8,0,0,0,115.59,57.54Zm1.12,4.06a1.52,1.52,0,0,1-.45,1.17,1.7,1.7,0,0,1-1.2.42,1.11,1.11,0,0,1-.77-.24.87.87,0,0,1-.26-.67,1,1,0,0,1,.44-.89,2.85,2.85,0,0,1,1.41-.33l.83,0Zm4.75-3.73a2.57,2.57,0,0,0-.84.92h-.07l-.18-1.14h-1.08v6.48h1.38V60.75a2,2,0,0,1,.51-1.4,1.76,1.76,0,0,1,1.34-.54,2.6,2.6,0,0,1,.61.07l.13-1.28a3.32,3.32,0,0,0-.69-.06A2,2,0,0,0,121.45,57.88Zm8.32,3a5.67,5.67,0,0,0-1.17-.57,6.25,6.25,0,0,1-1.24-.58.62.62,0,0,1-.28-.52q0-.62,1.09-.62a4.81,4.81,0,0,1,1.76.43l.45-1a5.17,5.17,0,0,0-2.16-.46,3.18,3.18,0,0,0-1.82.46,1.48,1.48,0,0,0-.67,1.29,1.6,1.6,0,0,0,.4,1.12,4.14,4.14,0,0,0,1.51.87,8,8,0,0,1,.9.4A1.66,1.66,0,0,1,129,62a.61.61,0,0,1,.14.41q0,.77-1.27.77a5.1,5.1,0,0,1-2.13-.53v1.19a4.68,4.68,0,0,0,2.08.39,3.31,3.31,0,0,0,2-.51,1.7,1.7,0,0,0,.69-1.46,1.72,1.72,0,0,0-.18-.81A1.7,1.7,0,0,0,129.77,60.89Zm4.83-3.35a2.52,2.52,0,0,0-1.17.26,1.91,1.91,0,0,0-.78.73h-.09a10.79,10.79,0,0,0,.07-1.19V55h-1.38v9.11h1.38V60.91a2.86,2.86,0,0,1,.41-1.74,1.52,1.52,0,0,1,1.27-.52,1.17,1.17,0,0,1,1,.37,1.74,1.74,0,0,1,.3,1.12v4H137V59.91A2.09,2.09,0,0,0,134.6,57.54Zm6.25,0a2.93,2.93,0,0,0-2.28.88,3.51,3.51,0,0,0-.81,2.46,4,4,0,0,0,.37,1.78,2.71,2.71,0,0,0,1.07,1.18,3.11,3.11,0,0,0,1.6.41,2.92,2.92,0,0,0,2.27-.89,3.54,3.54,0,0,0,.81-2.48,3.5,3.5,0,0,0-.82-2.44A2.85,2.85,0,0,0,140.85,57.54Zm0,5.59q-1.66,0-1.66-2.24a2.92,2.92,0,0,1,.39-1.65,1.41,1.41,0,0,1,1.26-.57q1.65,0,1.65,2.22T140.84,63.12Zm7.23-5.59a2.16,2.16,0,0,0-1.93,1h-.07q-.15-.69-.19-.87h-1.11V67h1.38V64.36q0-.18-.08-1h.08a2.49,2.49,0,0,0,3.81,0,4.82,4.82,0,0,0,0-4.94A2.25,2.25,0,0,0,148.06,57.54Zm.77,5a1.24,1.24,0,0,1-1.1.59,1.39,1.39,0,0,1-1.22-.53,3,3,0,0,1-.37-1.71v-.2a2.49,2.49,0,0,1,.38-1.53,1.43,1.43,0,0,1,1.2-.48,1.28,1.28,0,0,1,1.13.56,2.92,2.92,0,0,1,.38,1.65A3,3,0,0,1,148.83,62.54Zm6.25-53.47h1.86v5.64h1.45V9.07h1.86V7.86h-5.17Zm11.19-1.21-1.72,5.24h0L162.9,7.86h-2v6.85h1.3V11.52q0-.55-.09-2.19h0l1.65,5.37h1.33l1.77-5.37h0q-.06,1.29-.06,1.59t0,.53v3.24h1.35V7.86Z"/></svg>