<svg xmlns="http://www.w3.org/2000/svg" width="54" height="34" viewBox="0 0 54 34"><g fill="none"><path fill="#000" d="M0 0h54v34h-54z"/><path fill="#fff" d="M43.925 28.157c-.312-.208-.742-.314-1.217-.314-.755 0-1.242.365-1.242.962 0 .491.362.792 1.03.887l.306.044c.355.05.524.145.524.315 0 .233-.237.365-.68.365-.449 0-.774-.144-.992-.314l-.306.509c.355.264.805.39 1.291.39.861 0 1.36-.409 1.36-.981 0-.528-.393-.805-1.042-.9l-.306-.044c-.281-.038-.505-.095-.505-.296 0-.22.212-.352.568-.352.38 0 .749.145.93.258l.281-.528zm-3.114 0c-.312-.208-.742-.314-1.217-.314-.755 0-1.242.365-1.242.962 0 .491.362.792 1.03.887l.306.044c.356.05.524.145.524.315 0 .233-.237.365-.68.365-.449 0-.774-.144-.992-.314l-.306.509c.356.264.805.39 1.291.39.861 0 1.36-.409 1.36-.981 0-.528-.393-.805-1.042-.9l-.306-.044c-.281-.038-.505-.095-.505-.296 0-.22.212-.352.568-.352.38 0 .749.145.93.258l.281-.528zm-7.431 1.251c0 .529-.343.962-.905.962-.537 0-.899-.415-.899-.962 0-.547.362-.962.899-.962.562 0 .905.434.905.962zm-2.415 0v2.591h.649v-1.453c.206.27.518.44.942.44.836 0 1.491-.66 1.491-1.579 0-.918-.655-1.579-1.491-1.579-.424 0-.736.17-.942.44v-.365h-.649v1.503zm4.224.006c0-.528.343-.962.905-.962.537 0 .898.415.898.962 0 .547-.362.962-.898.962-.562 0-.905-.434-.905-.962zm2.415 0v-1.503h-.649v.365c-.206-.27-.518-.44-.942-.44-.836 0-1.491.66-1.491 1.579 0 .918.655 1.579 1.491 1.579.424 0 .736-.17.942-.441v.365h.649v-1.503zm-21.633 0c0-.528.343-.962.905-.962.537 0 .899.415.899.962 0 .547-.362.962-.899.962-.562 0-.905-.434-.905-.962zm2.415 0v-1.503h-.649v.365c-.206-.27-.518-.44-.942-.44-.836 0-1.491.66-1.491 1.579 0 .918.655 1.579 1.491 1.579.424 0 .736-.17.942-.441v.365h.649v-1.503zm8.049-.994c.418 0 .687.264.755.73h-1.548c.069-.434.331-.73.792-.73zm.012-.585c-.873 0-1.485.641-1.485 1.579 0 .956.637 1.579 1.529 1.579.449 0 .861-.113 1.223-.422l-.319-.484c-.25.201-.568.314-.867.314-.418 0-.799-.195-.893-.736h2.215l.013-.251c-.006-.937-.58-1.579-1.417-1.579zm-4.854.314c-.312-.208-.742-.314-1.217-.314-.755 0-1.242.365-1.242.962 0 .491.362.793 1.03.887l.306.044c.356.05.524.144.524.314 0 .233-.237.365-.68.365-.449 0-.774-.145-.992-.315l-.306.509c.356.264.805.39 1.292.39.861 0 1.36-.409 1.36-.981 0-.528-.393-.805-1.042-.899l-.306-.044c-.281-.037-.505-.094-.505-.295 0-.22.212-.352.568-.352.381 0 .749.145.93.258l.281-.528zm8.367-.314c-.374 0-.618.176-.786.44v-.365h-.643v3.007h.649v-1.686c0-.497.212-.774.636-.774.131 0 .268.019.406.076l.2-.616c-.143-.057-.331-.082-.461-.082zm-5.535.075h-1.061v-.912h-.655v.912h-.606v.598h.606v1.371c0 .698.268 1.113 1.036 1.113.281 0 .605-.088.811-.233l-.187-.56c-.194.113-.406.17-.574.17-.324 0-.43-.201-.43-.503v-1.359h1.061v-.598zm-9.696 3.007v-1.887c0-.711-.449-1.189-1.173-1.195-.38-.006-.774.113-1.048.534-.206-.333-.53-.534-.986-.534-.318 0-.63.094-.874.447v-.371h-.649v3.007h.655v-1.667c0-.522.287-.799.73-.799.43 0 .649.283.649.792v1.673h.655v-1.667c0-.522.299-.799.73-.799.443 0 .655.283.655.792v1.673h.655z"/><path fill="#FF5F00" d="M16.313 22.539h21.375v-18.089h-21.375z"/><path fill="#EC001B" d="M22.515 13.5c0-3.668 1.754-6.936 4.485-9.041-1.997-1.54-4.518-2.459-7.257-2.459-6.485 0-11.743 5.149-11.743 11.5s5.257 11.5 11.743 11.5c2.74 0 5.26-.919 7.257-2.459-2.731-2.106-4.485-5.372-4.485-9.041"/><path fill="#F89E1B" d="M46 13.5c0 6.351-5.257 11.5-11.743 11.5-2.74 0-5.259-.919-7.257-2.459 2.732-2.106 4.485-5.372 4.485-9.041 0-3.668-1.753-6.936-4.485-9.041 1.998-1.54 4.518-2.459 7.257-2.459 6.485 0 11.743 5.149 11.743 11.5"/></g></svg>