<svg xmlns="http://www.w3.org/2000/svg" viewBox="0 0 400 400"><defs><style>.a{fill:#15437B;fill-rule:evenodd;}</style></defs><title>bose_header_user</title><path class="a" d="M113.39,334.71l0-1.13c.46-33.3,17.93-47.43,33.1-56,7.22-4.09,15.42-7.35,23.36-10.51,2.39-1,8.85-3.57,8.85-3.57,9.37-3.84,19.05-7.8,24-16.29.06-2,.19-9,.24-10.26,0-.8.09-1.65.15-2.52a29.68,29.68,0,0,0-.13-7.79c-.17-.8-1.57-2.63-2.58-3.95-.59-.76-1.16-1.51-1.57-2.12A63,63,0,0,1,190.28,202a14.89,14.89,0,0,1-.38-2,6.77,6.77,0,0,0-.5-2.09,10,10,0,0,0-2.44-2.16,15.53,15.53,0,0,1-2.53-2.16c-5.43-6.46-9.78-22.21-4.24-32.22a10.51,10.51,0,0,1,.6-.89,3.83,3.83,0,0,0,.84-1.62,21.33,21.33,0,0,0-1-4.86c-.31-1.1-.59-2.13-.73-2.86a137.53,137.53,0,0,1-2.57-26.87c.16-30.29,15.22-50.44,42.41-56.74a89.15,89.15,0,0,1,19.87-2.25c13.75,0,24.8,3.25,31.12,9.18.29.28.6.62.93,1A7.35,7.35,0,0,0,273.35,77a13.67,13.67,0,0,0,3.27.9,16.57,16.57,0,0,1,2.53.63c19.19,7.13,28.14,27,25.21,56a142.74,142.74,0,0,1-3.16,19,24.41,24.41,0,0,1-.75,2.37,10.68,10.68,0,0,0-.79,3,10.8,10.8,0,0,0,1.42,3.15,17.53,17.53,0,0,1,1.47,3c2.29,7.43.24,15.53-1.19,19.71-2.16,6.31-5.07,10.21-9.68,12.91-2.51,11.08-6.26,19.66-11.48,26.23l-.52.64a8.59,8.59,0,0,0-1.42,2,30,30,0,0,0-.14,7.92l.16,2.77c0,1.07.06,2.18.07,3.3a31.92,31.92,0,0,0,.48,6.66c1.18,4.47,8.44,8.86,10.64,10.09,6.89,3.87,14.79,7,22.42,10,7.83,3.06,15.93,6.24,22.87,10.24,22.71,13.1,32.55,29.85,32.89,56v1.13Zm237.69-14.77c-4.7-20.8-21.84-29.53-39-36.67-2.92-1.21-5.93-2.37-8.95-3.53-11.07-4.26-22.52-8.66-30.77-16.28-3.11-2.86-7.12-7.86-8.17-12.53-.84-3.7-.83-8.3-.82-12.75v-2.77c0-5.85-.06-11.08.2-16.14l0-.55.45-.31c7.69-5.32,12.34-15.76,14.23-31.95l.08-.74.72-.2a16,16,0,0,1,2.58-.44,8.52,8.52,0,0,0,2.87-.64c2.74-1.46,5.44-11.12,3.62-15.23a7.65,7.65,0,0,0-2.36-2.16c-1.44-1-2.8-2-3-3.42-.19-1.24.46-2.91,1.47-5.33.37-.9.73-1.74.92-2.39,5.2-17.92,8.05-43.31-1-55.87-3.75-5.2-9.57-8-19.45-9.54l-.57-.09-.26-.51C259.7,81.76,249.19,80,241.1,80c-1,0-2,0-3.06.08-23,1.09-36.48,9-42.52,25-6.51,17.19-2.34,39.24,2.59,58.52l.12.46-.25.4a7.25,7.25,0,0,1-2.61,2.27,5.21,5.21,0,0,0-2.59,2.62c-.95,2.5.11,6.72.63,8.75,1.24,5,2.8,7.37,8.32,7.39h1l.1,1c1.12,10.72,4.57,25,14.63,32.13l.47.34v.58c0,2.89,0,5.72,0,8.51,0,5.19.07,10.2-.21,15.06-.05.92-.06,1.85-.06,2.76a23.84,23.84,0,0,1-.36,5.06c-1,4.62-5,9.24-8.15,12.31a51.3,51.3,0,0,1-12,8.22,212.24,212.24,0,0,1-21.26,9.35c-21.09,8.39-41,16.31-45.92,39.12Z"/><path class="a" d="M160.84,258.41a45.7,45.7,0,0,0,7-15.17,27.09,27.09,0,0,0,7.11-11.48c1.68-4.92,3.19-12.38.85-20-.17-.56-.37-1.09-.54-1.09a.09.09,0,0,0-.06,0,103.38,103.38,0,0,0,2.23-13.41c2.41-24-6.24-41.49-23.73-48a5.35,5.35,0,0,0-1.52-.4H152c-8-7.26-19.45-8.78-27.63-8.78a68.8,68.8,0,0,0-15.3,1.74c-22.87,5.3-36.06,22.66-36.2,47.61A97.94,97.94,0,0,0,74.7,208.8c.06.34.15.75.29.75a.12.12,0,0,0,.08,0c-4.61,11.11-.81,24.61,5.12,31.66.58.7,1.19,1.3,1.47,1.31a51.33,51.33,0,0,0,6.86,14.66l.74.6-.16,2.56-.06,2.3a45.61,45.61,0,0,1-7.76,3.7l-5.5,2.22a129.56,129.56,0,0,0-16.22,7.35c-18.18,10.3-26.79,24.85-27.08,45.8l-.18,13h71.6l-.19-1.29a43.59,43.59,0,0,1,0-11.44l.15-1.24H46.48c.47-15.25,6.49-25.08,20-32.72A120,120,0,0,1,81,281.5l5.6-2.27c6.21-2.54,12.63-5.16,16.23-11.52.14-1.62.17-3.12.2-4.62l.05-2.24.09-1.43a20.37,20.37,0,0,0-.11-5.52,9.56,9.56,0,0,0-2-3.25c-.34-.45-.67-.87-.91-1.24A38,38,0,0,1,95,238.2a8.66,8.66,0,0,1-.19-1,5.65,5.65,0,0,0-.52-1.93,7,7,0,0,0-2-2,8.19,8.19,0,0,1-1.29-1.08c-3-3.6-5.56-12.74-2.22-18.7a3.92,3.92,0,0,0,.86-1.89,12.14,12.14,0,0,0-.71-3.76c-.17-.63-.34-1.22-.42-1.64a84.86,84.86,0,0,1-1.59-16.64c.1-18.21,9.11-30.32,25.39-34.09a54.41,54.41,0,0,1,12.15-1.39c8.22,0,14.76,1.89,18.91,5.84a5.81,5.81,0,0,0,1.66,1.42,10.5,10.5,0,0,0,2.47.7,8,8,0,0,1,1.32.32c11.28,4.19,16.52,16.1,14.76,33.53a84.87,84.87,0,0,1-2,11.74c-.1.41-.26.86-.42,1.31a7.58,7.58,0,0,0-.6,2.57,7,7,0,0,0,1.13,2.81,10.2,10.2,0,0,1,.78,1.57c1.29,4.2.1,8.9-.73,11.33-1.26,3.7-2.88,5.82-5.55,7.31l-.44.25-.11.48c-1.53,6.88-3.81,12.17-7.28,16.53a5.38,5.38,0,0,0-1.27,2.06,19.93,19.93,0,0,0-.13,5.48l.1,1.75,0,2a10.64,10.64,0,0,0,.36,3.38C147.57,267.09,160.88,259.13,160.84,258.41Z"/></svg>