<svg xmlns="http://www.w3.org/2000/svg" viewBox="0 0 400 400"><title>mobile_header_user</title><path d="M200,208.7c36.5,0,66.1-34.6,66.1-77.3,0-59.2-29.6-77.3-66.1-77.3s-66.1,18.1-66.1,77.3C133.9,174.1,163.5,208.7,200,208.7Z" style="fill:#FFFFFF"/><path d="M345.9,322.5l-33.3-75.1a16.7,16.7,0,0,0-7.5-8l-51.7-26.9a3.3,3.3,0,0,0-3.5.3,81.6,81.6,0,0,1-99.5,0,3.3,3.3,0,0,0-3.5-.3L95,239.4a16.7,16.7,0,0,0-7.5,8L54.1,322.5a16.7,16.7,0,0,0,15.2,23.4H330.6a16.7,16.7,0,0,0,15.2-23.4Z" style="fill:#FFFFFF"/></svg>