<svg xmlns="http://www.w3.org/2000/svg" viewBox="0 0 400 400"><title>fa-phone</title><path d="M330.9,275.9a61.4,61.4,0,0,1-1.9,13.1,73.9,73.9,0,0,1-3.9,12.7q-3.9,9.3-22.7,19.7t-34.6,9.5a73.8,73.8,0,0,1-9.9-.7,76.4,76.4,0,0,1-10.7-2.3l-8.7-2.7-10.3-3.8-9.1-3.3a168.5,168.5,0,0,1-32.5-15.4Q163,288,137.5,262.5T97.3,213.4a168.5,168.5,0,0,1-15.4-32.5q-.6-1.7-3.3-9.1l-3.8-10.3q-1-2.9-2.7-8.7A76.4,76.4,0,0,1,69.7,142a73.8,73.8,0,0,1-.7-9.9q0-17.1,9.5-34.6T98.3,74.8A73.9,73.9,0,0,1,111,70.9a61.4,61.4,0,0,1,13.1-1.9,10.4,10.4,0,0,1,3.9.6q3.3,1.1,9.9,14.1l5.6,10,6.5,11.8q3,5.3,5.8,10l3.3,4.7a51.9,51.9,0,0,1,4,6.6,12.1,12.1,0,0,1,1.3,5.3q0,3.7-5.3,9.3a90.7,90.7,0,0,1-11.5,10.2,112,112,0,0,0-11.5,9.9q-5.3,5.2-5.3,8.6a12.6,12.6,0,0,0,.9,4.2,40.6,40.6,0,0,0,1.6,3.8q.7,1.3,2.6,4.5l2.1,3.5a195.2,195.2,0,0,0,32.4,43.7A195.2,195.2,0,0,0,214,262.1l3.5,2.1,4.5,2.6,3.8,1.6a12.6,12.6,0,0,0,4.2.9q3.3,0,8.6-5.3a112,112,0,0,0,9.9-11.5A90.7,90.7,0,0,1,258.6,241q5.6-5.3,9.3-5.3a12.1,12.1,0,0,1,5.3,1.3,51.9,51.9,0,0,1,6.6,4l4.7,3.3,10,5.8,11.8,6.5,10,5.6q13,6.5,14.1,9.9A10.4,10.4,0,0,1,330.9,275.9Z" style="fill:#FFFFFF"/></svg>