<svg xmlns="http://www.w3.org/2000/svg" viewBox="0 0 400 400"><title>fa-shopping-cart</title><path d="M164.3,307.1a23.7,23.7,0,0,1-40.5,16.7,23.7,23.7,0,1,1,33.5-33.5A22.9,22.9,0,0,1,164.3,307.1Zm166.7,0a24.1,24.1,0,1,1-7.1-16.7A22.9,22.9,0,0,1,330.9,307.1Zm23.8-202.4V200a11.5,11.5,0,0,1-3.1,7.9,11.8,11.8,0,0,1-7.5,4L150,234.6q2.4,11.2,2.4,13t-4.5,11.9H319a11.9,11.9,0,0,1,0,23.8H128.6a12.1,12.1,0,0,1-11.9-11.9,17.7,17.7,0,0,1,1.5-5.9,70.9,70.9,0,0,1,3-6.7l4-7.4q2.5-4.6,2.9-5.5L95.1,92.9H57.2a11.8,11.8,0,0,1-8.4-20.3,11.4,11.4,0,0,1,8.4-3.5h47.6a11.3,11.3,0,0,1,5.3,1.2,10.8,10.8,0,0,1,3.6,2.9,18.1,18.1,0,0,1,2.4,4.6,29,29,0,0,1,1.5,4.8l1,5.5q.7,3.5.8,4.8H342.8a12.1,12.1,0,0,1,11.9,11.9Z" style="fill:#FFFFFF"/></svg>