<svg xmlns="http://www.w3.org/2000/svg" viewBox="0 0 400 400"><title>header_cart</title><path d="M364.8,132.6c-2.3,12.8-4.5,25.5-6.9,38.3s-3.7,24.8-7,36.9-16.6,23.4-30.2,23.5c-44.1.2-88.2.1-132.3.1-5.8,0-5.8,0-4.4,5.8,2.6,10.5,10.4,16.9,21.3,17H311c4.2,0,8.4.5,12.2,2.5,10.2,5.3,13.4,17.7,7.4,29s-18.4,16.5-29,13.2-17.2-16.3-12-28.1c2.1-4.9,2.1-4.9-3.3-4.9h-74c-8.5,0-17-.5-24.5-5.3a2.1,2.1,0,0,0-2.9.3l-1,.8c-3.2,2.5-5.2,4.7-4.5,9.9,2.2,17.5-15.5,32.4-31.6,27.5-10.1-3.1-15.6-12.8-13.4-23.6,3.3-15.7,21.3-25.6,34.9-18.8a2.7,2.7,0,0,0,3.5-.4c1.2-1.2,2.6-2.2,3.9-3.3a1.7,1.7,0,0,0,.6-2.5c-4.7-7.3-5.3-15.8-6.9-23.9Q159.5,171.4,149,116.5c-.6-3.1-2-4.5-5.2-4.4s-8.4.1-12.6,0-5.3-.9-6.5-3.9a5.3,5.3,0,0,1,4.2-7.3c6.8-.9,13.7-1.2,20.5.5s8.7,5,10,10.3c.8,3,1.4,6.1,1.9,9.1s1.3,2.8,3.2,2.6H356.8c3.3,0,6.2.3,8.1,3.5Zm-106.5,2.1H167.6c-2.7,0-3.5.6-2.9,3.5q7.8,39.1,15.2,78.3c.6,3.1,1.9,3.7,4.7,3.7,44.5-.1,89.1-.2,133.6.1,11.3.1,21.1-9.2,22.8-18.9,3.4-20.7,7.3-41.4,10.9-62.1.8-4.5.7-4.5-3.7-4.5Zm49.2,153.6A15.2,15.2,0,0,0,322.1,276c.9-5.9-2.7-10.1-8.6-10a15.3,15.3,0,0,0-13.9,10.6C297.6,283.2,301.1,288.3,307.6,288.3Zm-153.8,0a15.2,15.2,0,0,0,14.4-12.1c1.1-6.3-2.6-10.5-8.9-10.3a15.2,15.2,0,0,0-13.7,11.2C144.1,283.7,147.5,288.3,153.8,288.3Z" style="fill:#15437B"/><path d="M35.2,132.6c1.5-2.8,4-3.5,7-3.5H130c4.8,0,7.1,1.8,7.1,5.5s-2.5,5.8-7.3,5.8H58.5c-5.1,0-10.3-.1-15.4,0-3.2.1-5.9-.7-7.9-3.4Z" style="fill:#15437B"/><path d="M97.6,163.3h37a24,24,0,0,1,3.2.1c2.9.4,4.7,2.1,5,5a5.1,5.1,0,0,1-4,5.8,14,14,0,0,1-3.8.4H60a17.7,17.7,0,0,1-2.9-.1,5.7,5.7,0,0,1-5.1-5.7,5.5,5.5,0,0,1,5.7-5.4H97.6Z" style="fill:#15437B"/><path d="M109,197.4h32.5a7.7,7.7,0,0,1,4.6,1,5.6,5.6,0,0,1-1.7,10,15.1,15.1,0,0,1-3.8.3H75c-3.5-.3-5.8-2.5-5.8-5.6s2.3-5.6,6.1-5.6H109Z" style="fill:#15437B"/><path d="M120.3,242.9h-26a15.1,15.1,0,0,1-3.5-.2,5.3,5.3,0,0,1-4.5-5.5,5.2,5.2,0,0,1,4.3-5.3,16.4,16.4,0,0,1,3.8-.3h52.4c4.8,0,7.5,2.1,7.5,5.6s-2.7,5.7-7.4,5.7H120.3Z" style="fill:#15437B"/><path d="M283.8,202.3l4.4-24.9,4.4-24.7a14.1,14.1,0,0,1,.6-2.5c1.1-3,3.7-4.5,6.6-3.8a5.5,5.5,0,0,1,4.3,6.3c-.8,5.8-1.9,11.6-2.9,17.4l-5.7,32.3c-.4,2.3-1.1,4.4-3.3,5.6a5.2,5.2,0,0,1-5.5-.1C284.6,206.6,283.8,204.7,283.8,202.3Z" style="fill:#15437B"/><path d="M238.5,201.2l4.1-23.6,4.3-24.4a21.7,21.7,0,0,1,.6-2.5c1-3.2,3.6-5,6.5-4.5s5.2,3.5,4.6,7c-1.7,9.7-3.4,19.4-5.1,29.1-1.2,7-2.4,13.9-3.7,20.9-.7,3.6-3.5,5.8-6.5,5.3S238.3,205.7,238.5,201.2Z" style="fill:#15437B"/><path d="M281.3,152.9l-3.5,20.3L272.9,201c-.2.9-.3,1.9-.6,2.8-.9,3.4-3.7,5.4-6.6,4.7a6,6,0,0,1-4.5-7.1c.9-5.7,2-11.4,3-17.1l5.8-32.6c.5-3,2.1-5.2,5.3-5.6S281.3,148.7,281.3,152.9Z" style="fill:#15437B"/><path d="M235.6,153.6l-4.1,23.4c-1.4,8.1-2.9,16.2-4.3,24.4-.9,5.2-3.4,7.8-6.9,7.2s-5.3-3.7-4.4-8.8q4.2-23.7,8.4-47.5c.1-.4.1-.8.3-1.3.9-3.3,3.4-5.2,6.2-4.9S235.7,149,235.6,153.6Z" style="fill:#15437B"/><path d="M192.8,202l3.4-19.6,4.9-27.8c.2-1.2.4-2.3.7-3.5.9-3.4,3.7-5.4,6.5-4.8a5.9,5.9,0,0,1,4.5,7.1c-.9,5.8-2,11.6-3.1,17.4-1.9,10.9-3.8,21.7-5.8,32.6-.8,4.5-4.4,6.4-8,4.8S192.8,205.3,192.8,202Z" style="fill:#15437B"/><path d="M306.7,201.7l4-23.2,4.4-25a23.4,23.4,0,0,1,.6-2.8c1-3.2,3.7-5.1,6.5-4.5a5.9,5.9,0,0,1,4.5,7.1c-.9,5.7-2,11.4-3,17.1-1.9,11-3.9,21.9-5.9,32.9-.6,3.5-3.3,5.7-6.2,5.3S306.6,205.8,306.7,201.7Z" style="fill:#15437B"/></svg>